<?xml version="1.0" encoding="UTF-8" standalone="no"?><svg xmlns="http://www.w3.org/2000/svg" xmlns:xlink="http://www.w3.org/1999/xlink" contentScriptType="application/ecmascript" contentStyleType="text/css" height="579px" preserveAspectRatio="none" style="width:2787px;height:579px;" version="1.1" viewBox="0 0 2787 579" width="2787px" zoomAndPan="magnify"><defs><filter height="300%" id="fk7nwe3j8ozds" width="300%" x="-1" y="-1"><feGaussianBlur result="blurOut" stdDeviation="2.0"/><feColorMatrix in="blurOut" result="blurOut2" type="matrix" values="0 0 0 0 0 0 0 0 0 0 0 0 0 0 0 0 0 0 .4 0"/><feOffset dx="4.0" dy="4.0" in="blurOut2" result="blurOut3"/><feBlend in="SourceGraphic" in2="blurOut3" mode="normal"/></filter></defs><g><!--MD5=[6cdecdd98f8e8c9e326c037f58246e66]
class BattleCommand--><rect codeLine="1" fill="#FEFECE" filter="url(#fk7nwe3j8ozds)" height="99.2188" id="BattleCommand" style="stroke:#A80036;stroke-width:1.5;" width="129" x="8.5" y="52"/><ellipse cx="23.5" cy="68" fill="#B4A7E5" rx="11" ry="11" style="stroke:#A80036;stroke-width:1.0;"/><path d="M24.4531,64.7813 L26.1719,64.7813 C26.5625,64.7813 26.75,64.75 26.875,64.6719 C27.1406,64.5156 27.2813,64.2344 27.2813,63.9375 C27.2813,63.6719 27.1719,63.4063 26.9375,63.2344 C26.7656,63.125 26.625,63.0938 26.1719,63.0938 L21.0313,63.0938 C20.5938,63.0938 20.4688,63.1094 20.3125,63.2031 C20.0625,63.3594 19.9063,63.6563 19.9063,63.9375 C19.9063,64.2188 20.0469,64.4688 20.2656,64.6406 C20.4219,64.75 20.6094,64.7813 21.0313,64.7813 L22.75,64.7813 L22.75,71.2969 L21.0313,71.2969 C20.5938,71.2969 20.4688,71.3125 20.3125,71.4219 C20.0625,71.5781 19.9063,71.8594 19.9063,72.1563 C19.9063,72.4063 20.0469,72.6719 20.2656,72.8281 C20.4219,72.9531 20.625,73 21.0313,73 L26.1719,73 C26.9219,73 27.2813,72.7188 27.2813,72.1563 C27.2813,71.875 27.1719,71.625 26.9375,71.4531 C26.7656,71.3281 26.625,71.2969 26.1719,71.2969 L24.4531,71.2969 L24.4531,64.7813 Z " fill="#000000"/><text fill="#000000" font-family="sans-serif" font-size="12" font-style="italic" lengthAdjust="spacing" textLength="97" x="37.5" y="72.1543">BattleCommand</text><line style="stroke:#A80036;stroke-width:1.5;" x1="9.5" x2="136.5" y1="84" y2="84"/><line style="stroke:#A80036;stroke-width:1.5;" x1="9.5" x2="136.5" y1="92" y2="92"/><text fill="#000000" font-family="sans-serif" font-size="11" lengthAdjust="spacing" textLength="46" x="14.5" y="106.2104">attack ()</text><text fill="#000000" font-family="sans-serif" font-size="11" lengthAdjust="spacing" textLength="44" x="14.5" y="119.0151">guard ()</text><text fill="#000000" font-family="sans-serif" font-size="11" lengthAdjust="spacing" textLength="30" x="14.5" y="131.8198">skip()</text><text fill="#000000" font-family="sans-serif" font-size="11" lengthAdjust="spacing" textLength="71" x="14.5" y="144.6245">showstatus()</text><!--MD5=[81c0cb6bfbd61aedeecd14805b0650db]
class PlayerCommands--><rect codeLine="8" fill="#FEFECE" filter="url(#fk7nwe3j8ozds)" height="73.6094" id="PlayerCommands" style="stroke:#A80036;stroke-width:1.5;" width="136" x="173" y="64.5"/><ellipse cx="188" cy="80.5" fill="#B4A7E5" rx="11" ry="11" style="stroke:#A80036;stroke-width:1.0;"/><path d="M188.9531,77.2813 L190.6719,77.2813 C191.0625,77.2813 191.25,77.25 191.375,77.1719 C191.6406,77.0156 191.7813,76.7344 191.7813,76.4375 C191.7813,76.1719 191.6719,75.9063 191.4375,75.7344 C191.2656,75.625 191.125,75.5938 190.6719,75.5938 L185.5313,75.5938 C185.0938,75.5938 184.9688,75.6094 184.8125,75.7031 C184.5625,75.8594 184.4063,76.1563 184.4063,76.4375 C184.4063,76.7188 184.5469,76.9688 184.7656,77.1406 C184.9219,77.25 185.1094,77.2813 185.5313,77.2813 L187.25,77.2813 L187.25,83.7969 L185.5313,83.7969 C185.0938,83.7969 184.9688,83.8125 184.8125,83.9219 C184.5625,84.0781 184.4063,84.3594 184.4063,84.6563 C184.4063,84.9063 184.5469,85.1719 184.7656,85.3281 C184.9219,85.4531 185.125,85.5 185.5313,85.5 L190.6719,85.5 C191.4219,85.5 191.7813,85.2188 191.7813,84.6563 C191.7813,84.375 191.6719,84.125 191.4375,83.9531 C191.2656,83.8281 191.125,83.7969 190.6719,83.7969 L188.9531,83.7969 L188.9531,77.2813 Z " fill="#000000"/><text fill="#000000" font-family="sans-serif" font-size="12" font-style="italic" lengthAdjust="spacing" textLength="104" x="202" y="84.6543">PlayerCommands</text><line style="stroke:#A80036;stroke-width:1.5;" x1="174" x2="308" y1="96.5" y2="96.5"/><line style="stroke:#A80036;stroke-width:1.5;" x1="174" x2="308" y1="104.5" y2="104.5"/><text fill="#000000" font-family="sans-serif" font-size="11" lengthAdjust="spacing" textLength="40" x="179" y="118.7104">equip()</text><text fill="#000000" font-family="sans-serif" font-size="11" lengthAdjust="spacing" textLength="54" x="179" y="131.5151">unequip()</text><!--MD5=[6404c2e9b17ab0285bc391984b9ac483]
class Battles--><rect codeLine="13" fill="#FEFECE" filter="url(#fk7nwe3j8ozds)" height="112.0234" id="Battles" style="stroke:#A80036;stroke-width:1.5;" width="132" x="7" y="256"/><ellipse cx="48.55" cy="272" fill="#ADD1B2" rx="11" ry="11" style="stroke:#A80036;stroke-width:1.0;"/><path d="M50.8938,267.6719 C49.9563,267.2344 49.3625,267.0938 48.4875,267.0938 C45.8625,267.0938 43.8625,269.1719 43.8625,271.8906 L43.8625,273.0156 C43.8625,275.5938 45.9719,277.4844 48.8625,277.4844 C50.0813,277.4844 51.2375,277.1875 51.9875,276.6406 C52.5656,276.2344 52.8938,275.7813 52.8938,275.3906 C52.8938,274.9375 52.5031,274.5469 52.0344,274.5469 C51.8156,274.5469 51.6125,274.625 51.425,274.8125 C50.9719,275.2969 50.9719,275.2969 50.7844,275.3906 C50.3625,275.6563 49.675,275.7813 48.9094,275.7813 C46.8625,275.7813 45.5656,274.6875 45.5656,272.9844 L45.5656,271.8906 C45.5656,270.1094 46.8156,268.7969 48.55,268.7969 C49.1281,268.7969 49.7375,268.9531 50.2063,269.2031 C50.6906,269.4844 50.8625,269.7031 50.9563,270.1094 C51.0188,270.5156 51.05,270.6406 51.1906,270.7656 C51.3313,270.9063 51.5656,271.0156 51.7844,271.0156 C52.05,271.0156 52.3156,270.875 52.4875,270.6563 C52.5969,270.5 52.6281,270.3125 52.6281,269.8906 L52.6281,268.4688 C52.6281,268.0313 52.6125,267.9063 52.5188,267.75 C52.3625,267.4844 52.0813,267.3438 51.7844,267.3438 C51.4875,267.3438 51.2844,267.4375 51.0656,267.75 L50.8938,267.6719 Z " fill="#000000"/><text fill="#000000" font-family="sans-serif" font-size="12" lengthAdjust="spacing" textLength="41" x="68.45" y="276.1543">Battles</text><line style="stroke:#A80036;stroke-width:1.5;" x1="8" x2="138" y1="288" y2="288"/><rect fill="none" height="6" style="stroke:#C82930;stroke-width:1.0;" width="6" x="15" y="296"/><text fill="#000000" font-family="sans-serif" font-size="11" lengthAdjust="spacing" textLength="40" x="27" y="302.2104">int turn</text><rect fill="none" height="6" style="stroke:#C82930;stroke-width:1.0;" width="6" x="15" y="308.8047"/><text fill="#000000" font-family="sans-serif" font-size="11" lengthAdjust="spacing" textLength="106" x="27" y="315.0151">boolean EndGame</text><line style="stroke:#A80036;stroke-width:1.5;" x1="8" x2="138" y1="321.6094" y2="321.6094"/><ellipse cx="18" cy="332.6094" fill="#84BE84" rx="3" ry="3" style="stroke:#038048;stroke-width:1.0;"/><text fill="#000000" font-family="sans-serif" font-size="11" lengthAdjust="spacing" textLength="42" x="27" y="335.8198">Battle()</text><ellipse cx="18" cy="345.4141" fill="#84BE84" rx="3" ry="3" style="stroke:#038048;stroke-width:1.0;"/><text fill="#000000" font-family="sans-serif" font-size="11" lengthAdjust="spacing" textLength="56" x="27" y="348.6245">battleAi ()</text><ellipse cx="18" cy="358.2188" fill="#84BE84" rx="3" ry="3" style="stroke:#038048;stroke-width:1.0;"/><text fill="#000000" font-family="sans-serif" font-size="11" lengthAdjust="spacing" textLength="72" x="27" y="361.4292">NewGame ()</text><!--MD5=[d9e68592086b66999b8cb691d44bbcc5]
class DataEnemy--><rect codeLine="22" fill="#FEFECE" filter="url(#fk7nwe3j8ozds)" height="86.4141" id="DataEnemy" style="stroke:#A80036;stroke-width:1.5;" width="249" x="341.5" y="269"/><ellipse cx="428.25" cy="285" fill="#ADD1B2" rx="11" ry="11" style="stroke:#A80036;stroke-width:1.0;"/><path d="M430.5938,280.6719 C429.6563,280.2344 429.0625,280.0938 428.1875,280.0938 C425.5625,280.0938 423.5625,282.1719 423.5625,284.8906 L423.5625,286.0156 C423.5625,288.5938 425.6719,290.4844 428.5625,290.4844 C429.7813,290.4844 430.9375,290.1875 431.6875,289.6406 C432.2656,289.2344 432.5938,288.7813 432.5938,288.3906 C432.5938,287.9375 432.2031,287.5469 431.7344,287.5469 C431.5156,287.5469 431.3125,287.625 431.125,287.8125 C430.6719,288.2969 430.6719,288.2969 430.4844,288.3906 C430.0625,288.6563 429.375,288.7813 428.6094,288.7813 C426.5625,288.7813 425.2656,287.6875 425.2656,285.9844 L425.2656,284.8906 C425.2656,283.1094 426.5156,281.7969 428.25,281.7969 C428.8281,281.7969 429.4375,281.9531 429.9063,282.2031 C430.3906,282.4844 430.5625,282.7031 430.6563,283.1094 C430.7188,283.5156 430.75,283.6406 430.8906,283.7656 C431.0313,283.9063 431.2656,284.0156 431.4844,284.0156 C431.75,284.0156 432.0156,283.875 432.1875,283.6563 C432.2969,283.5 432.3281,283.3125 432.3281,282.8906 L432.3281,281.4688 C432.3281,281.0313 432.3125,280.9063 432.2188,280.75 C432.0625,280.4844 431.7813,280.3438 431.4844,280.3438 C431.1875,280.3438 430.9844,280.4375 430.7656,280.75 L430.5938,280.6719 Z " fill="#000000"/><text fill="#000000" font-family="sans-serif" font-size="12" lengthAdjust="spacing" textLength="67" x="448.75" y="289.1543">DataEnemy</text><line style="stroke:#A80036;stroke-width:1.5;" x1="342.5" x2="589.5" y1="301" y2="301"/><rect fill="none" height="6" style="stroke:#C82930;stroke-width:1.0;" width="6" x="349.5" y="309"/><text fill="#000000" font-family="sans-serif" font-size="11" lengthAdjust="spacing" textLength="223" x="361.5" y="315.2104">HashMap&lt;Integer, Enemy&gt; DataPlayer</text><line style="stroke:#A80036;stroke-width:1.5;" x1="342.5" x2="589.5" y1="321.8047" y2="321.8047"/><ellipse cx="352.5" cy="332.8047" fill="#84BE84" rx="3" ry="3" style="stroke:#038048;stroke-width:1.0;"/><text fill="#000000" font-family="sans-serif" font-size="11" lengthAdjust="spacing" textLength="75" x="361.5" y="336.0151">DataEnemy()</text><ellipse cx="352.5" cy="345.6094" fill="#84BE84" rx="3" ry="3" style="stroke:#038048;stroke-width:1.0;"/><text fill="#000000" font-family="sans-serif" font-size="11" lengthAdjust="spacing" textLength="67" x="361.5" y="348.8198">getEnemy()</text><!--MD5=[d768a7ee11fdf300e2ad45405449ea78]
class DataPlayer--><rect codeLine="28" fill="#FEFECE" filter="url(#fk7nwe3j8ozds)" height="86.4141" id="DataPlayer" style="stroke:#A80036;stroke-width:1.5;" width="244" x="883" y="269"/><ellipse cx="969.25" cy="285" fill="#ADD1B2" rx="11" ry="11" style="stroke:#A80036;stroke-width:1.0;"/><path d="M971.5938,280.6719 C970.6563,280.2344 970.0625,280.0938 969.1875,280.0938 C966.5625,280.0938 964.5625,282.1719 964.5625,284.8906 L964.5625,286.0156 C964.5625,288.5938 966.6719,290.4844 969.5625,290.4844 C970.7813,290.4844 971.9375,290.1875 972.6875,289.6406 C973.2656,289.2344 973.5938,288.7813 973.5938,288.3906 C973.5938,287.9375 973.2031,287.5469 972.7344,287.5469 C972.5156,287.5469 972.3125,287.625 972.125,287.8125 C971.6719,288.2969 971.6719,288.2969 971.4844,288.3906 C971.0625,288.6563 970.375,288.7813 969.6094,288.7813 C967.5625,288.7813 966.2656,287.6875 966.2656,285.9844 L966.2656,284.8906 C966.2656,283.1094 967.5156,281.7969 969.25,281.7969 C969.8281,281.7969 970.4375,281.9531 970.9063,282.2031 C971.3906,282.4844 971.5625,282.7031 971.6563,283.1094 C971.7188,283.5156 971.75,283.6406 971.8906,283.7656 C972.0313,283.9063 972.2656,284.0156 972.4844,284.0156 C972.75,284.0156 973.0156,283.875 973.1875,283.6563 C973.2969,283.5 973.3281,283.3125 973.3281,282.8906 L973.3281,281.4688 C973.3281,281.0313 973.3125,280.9063 973.2188,280.75 C973.0625,280.4844 972.7813,280.3438 972.4844,280.3438 C972.1875,280.3438 971.9844,280.4375 971.7656,280.75 L971.5938,280.6719 Z " fill="#000000"/><text fill="#000000" font-family="sans-serif" font-size="12" lengthAdjust="spacing" textLength="63" x="989.75" y="289.1543">DataPlayer</text><line style="stroke:#A80036;stroke-width:1.5;" x1="884" x2="1126" y1="301" y2="301"/><rect fill="none" height="6" style="stroke:#C82930;stroke-width:1.0;" width="6" x="891" y="309"/><text fill="#000000" font-family="sans-serif" font-size="11" lengthAdjust="spacing" textLength="218" x="903" y="315.2104">HashMap&lt;Integer, Player&gt; DataPlayer</text><line style="stroke:#A80036;stroke-width:1.5;" x1="884" x2="1126" y1="321.8047" y2="321.8047"/><ellipse cx="894" cy="332.8047" fill="#84BE84" rx="3" ry="3" style="stroke:#038048;stroke-width:1.0;"/><text fill="#000000" font-family="sans-serif" font-size="11" lengthAdjust="spacing" textLength="70" x="903" y="336.0151">DataPlayer()</text><ellipse cx="894" cy="345.6094" fill="#84BE84" rx="3" ry="3" style="stroke:#038048;stroke-width:1.0;"/><text fill="#000000" font-family="sans-serif" font-size="11" lengthAdjust="spacing" textLength="62" x="903" y="348.8198">getPlayer()</text><!--MD5=[9bcc26ff159c789d8d6ad7e75f83b634]
class DataWeapon--><rect codeLine="34" fill="#FEFECE" filter="url(#fk7nwe3j8ozds)" height="86.4141" id="DataWeapon" style="stroke:#A80036;stroke-width:1.5;" width="277" x="1162.5" y="269"/><ellipse cx="1258.25" cy="285" fill="#ADD1B2" rx="11" ry="11" style="stroke:#A80036;stroke-width:1.0;"/><path d="M1260.5938,280.6719 C1259.6563,280.2344 1259.0625,280.0938 1258.1875,280.0938 C1255.5625,280.0938 1253.5625,282.1719 1253.5625,284.8906 L1253.5625,286.0156 C1253.5625,288.5938 1255.6719,290.4844 1258.5625,290.4844 C1259.7813,290.4844 1260.9375,290.1875 1261.6875,289.6406 C1262.2656,289.2344 1262.5938,288.7813 1262.5938,288.3906 C1262.5938,287.9375 1262.2031,287.5469 1261.7344,287.5469 C1261.5156,287.5469 1261.3125,287.625 1261.125,287.8125 C1260.6719,288.2969 1260.6719,288.2969 1260.4844,288.3906 C1260.0625,288.6563 1259.375,288.7813 1258.6094,288.7813 C1256.5625,288.7813 1255.2656,287.6875 1255.2656,285.9844 L1255.2656,284.8906 C1255.2656,283.1094 1256.5156,281.7969 1258.25,281.7969 C1258.8281,281.7969 1259.4375,281.9531 1259.9063,282.2031 C1260.3906,282.4844 1260.5625,282.7031 1260.6563,283.1094 C1260.7188,283.5156 1260.75,283.6406 1260.8906,283.7656 C1261.0313,283.9063 1261.2656,284.0156 1261.4844,284.0156 C1261.75,284.0156 1262.0156,283.875 1262.1875,283.6563 C1262.2969,283.5 1262.3281,283.3125 1262.3281,282.8906 L1262.3281,281.4688 C1262.3281,281.0313 1262.3125,280.9063 1262.2188,280.75 C1262.0625,280.4844 1261.7813,280.3438 1261.4844,280.3438 C1261.1875,280.3438 1260.9844,280.4375 1260.7656,280.75 L1260.5938,280.6719 Z " fill="#000000"/><text fill="#000000" font-family="sans-serif" font-size="12" lengthAdjust="spacing" textLength="77" x="1278.75" y="289.1543">DataWeapon</text><line style="stroke:#A80036;stroke-width:1.5;" x1="1163.5" x2="1438.5" y1="301" y2="301"/><rect fill="none" height="6" style="stroke:#C82930;stroke-width:1.0;" width="6" x="1170.5" y="309"/><text fill="#000000" font-family="sans-serif" font-size="11" lengthAdjust="spacing" textLength="251" x="1182.5" y="315.2104">HashMap&lt;Integer, Equipable&gt; DataWeapon</text><line style="stroke:#A80036;stroke-width:1.5;" x1="1163.5" x2="1438.5" y1="321.8047" y2="321.8047"/><ellipse cx="1173.5" cy="332.8047" fill="#84BE84" rx="3" ry="3" style="stroke:#038048;stroke-width:1.0;"/><text fill="#000000" font-family="sans-serif" font-size="11" lengthAdjust="spacing" textLength="82" x="1182.5" y="336.0151">DataWeapon()</text><ellipse cx="1173.5" cy="345.6094" fill="#84BE84" rx="3" ry="3" style="stroke:#038048;stroke-width:1.0;"/><text fill="#000000" font-family="sans-serif" font-size="11" lengthAdjust="spacing" textLength="74" x="1182.5" y="348.8198">getWeapon()</text><!--MD5=[5e42e93bfd805f5daa132de6f7576a0c]
class DataArmor--><rect codeLine="40" fill="#FEFECE" filter="url(#fk7nwe3j8ozds)" height="86.4141" id="DataArmor" style="stroke:#A80036;stroke-width:1.5;" width="264" x="1475" y="269"/><ellipse cx="1570.75" cy="285" fill="#ADD1B2" rx="11" ry="11" style="stroke:#A80036;stroke-width:1.0;"/><path d="M1573.0938,280.6719 C1572.1563,280.2344 1571.5625,280.0938 1570.6875,280.0938 C1568.0625,280.0938 1566.0625,282.1719 1566.0625,284.8906 L1566.0625,286.0156 C1566.0625,288.5938 1568.1719,290.4844 1571.0625,290.4844 C1572.2813,290.4844 1573.4375,290.1875 1574.1875,289.6406 C1574.7656,289.2344 1575.0938,288.7813 1575.0938,288.3906 C1575.0938,287.9375 1574.7031,287.5469 1574.2344,287.5469 C1574.0156,287.5469 1573.8125,287.625 1573.625,287.8125 C1573.1719,288.2969 1573.1719,288.2969 1572.9844,288.3906 C1572.5625,288.6563 1571.875,288.7813 1571.1094,288.7813 C1569.0625,288.7813 1567.7656,287.6875 1567.7656,285.9844 L1567.7656,284.8906 C1567.7656,283.1094 1569.0156,281.7969 1570.75,281.7969 C1571.3281,281.7969 1571.9375,281.9531 1572.4063,282.2031 C1572.8906,282.4844 1573.0625,282.7031 1573.1563,283.1094 C1573.2188,283.5156 1573.25,283.6406 1573.3906,283.7656 C1573.5313,283.9063 1573.7656,284.0156 1573.9844,284.0156 C1574.25,284.0156 1574.5156,283.875 1574.6875,283.6563 C1574.7969,283.5 1574.8281,283.3125 1574.8281,282.8906 L1574.8281,281.4688 C1574.8281,281.0313 1574.8125,280.9063 1574.7188,280.75 C1574.5625,280.4844 1574.2813,280.3438 1573.9844,280.3438 C1573.6875,280.3438 1573.4844,280.4375 1573.2656,280.75 L1573.0938,280.6719 Z " fill="#000000"/><text fill="#000000" font-family="sans-serif" font-size="12" lengthAdjust="spacing" textLength="64" x="1591.25" y="289.1543">DataArmor</text><line style="stroke:#A80036;stroke-width:1.5;" x1="1476" x2="1738" y1="301" y2="301"/><rect fill="none" height="6" style="stroke:#C82930;stroke-width:1.0;" width="6" x="1483" y="309"/><text fill="#000000" font-family="sans-serif" font-size="11" lengthAdjust="spacing" textLength="238" x="1495" y="315.2104">HashMap&lt;Integer, Equipable&gt; DataArmor</text><line style="stroke:#A80036;stroke-width:1.5;" x1="1476" x2="1738" y1="321.8047" y2="321.8047"/><ellipse cx="1486" cy="332.8047" fill="#84BE84" rx="3" ry="3" style="stroke:#038048;stroke-width:1.0;"/><text fill="#000000" font-family="sans-serif" font-size="11" lengthAdjust="spacing" textLength="69" x="1495" y="336.0151">DataArmor()</text><ellipse cx="1486" cy="345.6094" fill="#84BE84" rx="3" ry="3" style="stroke:#038048;stroke-width:1.0;"/><text fill="#000000" font-family="sans-serif" font-size="11" lengthAdjust="spacing" textLength="61" x="1495" y="348.8198">getArmor()</text><!--MD5=[7b07c3afbeab49e30ebef1854d236e5c]
class DataAccessories--><rect codeLine="46" fill="#FEFECE" filter="url(#fk7nwe3j8ozds)" height="86.4141" id="DataAccessories" style="stroke:#A80036;stroke-width:1.5;" width="298" x="1774" y="269"/><ellipse cx="1867.75" cy="285" fill="#ADD1B2" rx="11" ry="11" style="stroke:#A80036;stroke-width:1.0;"/><path d="M1870.0938,280.6719 C1869.1563,280.2344 1868.5625,280.0938 1867.6875,280.0938 C1865.0625,280.0938 1863.0625,282.1719 1863.0625,284.8906 L1863.0625,286.0156 C1863.0625,288.5938 1865.1719,290.4844 1868.0625,290.4844 C1869.2813,290.4844 1870.4375,290.1875 1871.1875,289.6406 C1871.7656,289.2344 1872.0938,288.7813 1872.0938,288.3906 C1872.0938,287.9375 1871.7031,287.5469 1871.2344,287.5469 C1871.0156,287.5469 1870.8125,287.625 1870.625,287.8125 C1870.1719,288.2969 1870.1719,288.2969 1869.9844,288.3906 C1869.5625,288.6563 1868.875,288.7813 1868.1094,288.7813 C1866.0625,288.7813 1864.7656,287.6875 1864.7656,285.9844 L1864.7656,284.8906 C1864.7656,283.1094 1866.0156,281.7969 1867.75,281.7969 C1868.3281,281.7969 1868.9375,281.9531 1869.4063,282.2031 C1869.8906,282.4844 1870.0625,282.7031 1870.1563,283.1094 C1870.2188,283.5156 1870.25,283.6406 1870.3906,283.7656 C1870.5313,283.9063 1870.7656,284.0156 1870.9844,284.0156 C1871.25,284.0156 1871.5156,283.875 1871.6875,283.6563 C1871.7969,283.5 1871.8281,283.3125 1871.8281,282.8906 L1871.8281,281.4688 C1871.8281,281.0313 1871.8125,280.9063 1871.7188,280.75 C1871.5625,280.4844 1871.2813,280.3438 1870.9844,280.3438 C1870.6875,280.3438 1870.4844,280.4375 1870.2656,280.75 L1870.0938,280.6719 Z " fill="#000000"/><text fill="#000000" font-family="sans-serif" font-size="12" lengthAdjust="spacing" textLength="102" x="1888.25" y="289.1543">DataAccessories</text><line style="stroke:#A80036;stroke-width:1.5;" x1="1775" x2="2071" y1="301" y2="301"/><rect fill="none" height="6" style="stroke:#C82930;stroke-width:1.0;" width="6" x="1782" y="309"/><text fill="#000000" font-family="sans-serif" font-size="11" lengthAdjust="spacing" textLength="272" x="1794" y="315.2104">HashMap&lt;Integer, Equipable&gt; DataAccessories</text><line style="stroke:#A80036;stroke-width:1.5;" x1="1775" x2="2071" y1="321.8047" y2="321.8047"/><ellipse cx="1785" cy="332.8047" fill="#84BE84" rx="3" ry="3" style="stroke:#038048;stroke-width:1.0;"/><text fill="#000000" font-family="sans-serif" font-size="11" lengthAdjust="spacing" textLength="103" x="1794" y="336.0151">DataAccessories()</text><ellipse cx="1785" cy="345.6094" fill="#84BE84" rx="3" ry="3" style="stroke:#038048;stroke-width:1.0;"/><text fill="#000000" font-family="sans-serif" font-size="11" lengthAdjust="spacing" textLength="95" x="1794" y="348.8198">getAccessories()</text><!--MD5=[39db01c89c23767d5aeb9a707ab0685f]
class DataSecondaryWeapon--><rect codeLine="52" fill="#FEFECE" filter="url(#fk7nwe3j8ozds)" height="86.4141" id="DataSecondaryWeapon" style="stroke:#A80036;stroke-width:1.5;" width="338" x="2107" y="269"/><ellipse cx="2200.75" cy="285" fill="#ADD1B2" rx="11" ry="11" style="stroke:#A80036;stroke-width:1.0;"/><path d="M2203.0938,280.6719 C2202.1563,280.2344 2201.5625,280.0938 2200.6875,280.0938 C2198.0625,280.0938 2196.0625,282.1719 2196.0625,284.8906 L2196.0625,286.0156 C2196.0625,288.5938 2198.1719,290.4844 2201.0625,290.4844 C2202.2813,290.4844 2203.4375,290.1875 2204.1875,289.6406 C2204.7656,289.2344 2205.0938,288.7813 2205.0938,288.3906 C2205.0938,287.9375 2204.7031,287.5469 2204.2344,287.5469 C2204.0156,287.5469 2203.8125,287.625 2203.625,287.8125 C2203.1719,288.2969 2203.1719,288.2969 2202.9844,288.3906 C2202.5625,288.6563 2201.875,288.7813 2201.1094,288.7813 C2199.0625,288.7813 2197.7656,287.6875 2197.7656,285.9844 L2197.7656,284.8906 C2197.7656,283.1094 2199.0156,281.7969 2200.75,281.7969 C2201.3281,281.7969 2201.9375,281.9531 2202.4063,282.2031 C2202.8906,282.4844 2203.0625,282.7031 2203.1563,283.1094 C2203.2188,283.5156 2203.25,283.6406 2203.3906,283.7656 C2203.5313,283.9063 2203.7656,284.0156 2203.9844,284.0156 C2204.25,284.0156 2204.5156,283.875 2204.6875,283.6563 C2204.7969,283.5 2204.8281,283.3125 2204.8281,282.8906 L2204.8281,281.4688 C2204.8281,281.0313 2204.8125,280.9063 2204.7188,280.75 C2204.5625,280.4844 2204.2813,280.3438 2203.9844,280.3438 C2203.6875,280.3438 2203.4844,280.4375 2203.2656,280.75 L2203.0938,280.6719 Z " fill="#000000"/><text fill="#000000" font-family="sans-serif" font-size="12" lengthAdjust="spacing" textLength="142" x="2221.25" y="289.1543">DataSecondaryWeapon</text><line style="stroke:#A80036;stroke-width:1.5;" x1="2108" x2="2444" y1="301" y2="301"/><rect fill="none" height="6" style="stroke:#C82930;stroke-width:1.0;" width="6" x="2115" y="309"/><text fill="#000000" font-family="sans-serif" font-size="11" lengthAdjust="spacing" textLength="312" x="2127" y="315.2104">HashMap&lt;Integer, Equipable&gt; DataSecondaryWeapon</text><line style="stroke:#A80036;stroke-width:1.5;" x1="2108" x2="2444" y1="321.8047" y2="321.8047"/><ellipse cx="2118" cy="332.8047" fill="#84BE84" rx="3" ry="3" style="stroke:#038048;stroke-width:1.0;"/><text fill="#000000" font-family="sans-serif" font-size="11" lengthAdjust="spacing" textLength="143" x="2127" y="336.0151">DataSecondaryWeapon()</text><ellipse cx="2118" cy="345.6094" fill="#84BE84" rx="3" ry="3" style="stroke:#038048;stroke-width:1.0;"/><text fill="#000000" font-family="sans-serif" font-size="11" lengthAdjust="spacing" textLength="135" x="2127" y="348.8198">getSecondaryWeapon()</text><!--MD5=[acb1d02493d27ef2cce572e7aec4aac6]
class BasicAttribute--><rect codeLine="58" fill="#FEFECE" filter="url(#fk7nwe3j8ozds)" height="188.8516" id="BasicAttribute" style="stroke:#A80036;stroke-width:1.5;" width="115" x="1624.5" y="7"/><ellipse cx="1639.5" cy="23" fill="#ADD1B2" rx="11" ry="11" style="stroke:#A80036;stroke-width:1.0;"/><path d="M1641.8438,18.6719 C1640.9063,18.2344 1640.3125,18.0938 1639.4375,18.0938 C1636.8125,18.0938 1634.8125,20.1719 1634.8125,22.8906 L1634.8125,24.0156 C1634.8125,26.5938 1636.9219,28.4844 1639.8125,28.4844 C1641.0313,28.4844 1642.1875,28.1875 1642.9375,27.6406 C1643.5156,27.2344 1643.8438,26.7813 1643.8438,26.3906 C1643.8438,25.9375 1643.4531,25.5469 1642.9844,25.5469 C1642.7656,25.5469 1642.5625,25.625 1642.375,25.8125 C1641.9219,26.2969 1641.9219,26.2969 1641.7344,26.3906 C1641.3125,26.6563 1640.625,26.7813 1639.8594,26.7813 C1637.8125,26.7813 1636.5156,25.6875 1636.5156,23.9844 L1636.5156,22.8906 C1636.5156,21.1094 1637.7656,19.7969 1639.5,19.7969 C1640.0781,19.7969 1640.6875,19.9531 1641.1563,20.2031 C1641.6406,20.4844 1641.8125,20.7031 1641.9063,21.1094 C1641.9688,21.5156 1642,21.6406 1642.1406,21.7656 C1642.2813,21.9063 1642.5156,22.0156 1642.7344,22.0156 C1643,22.0156 1643.2656,21.875 1643.4375,21.6563 C1643.5469,21.5 1643.5781,21.3125 1643.5781,20.8906 L1643.5781,19.4688 C1643.5781,19.0313 1643.5625,18.9063 1643.4688,18.75 C1643.3125,18.4844 1643.0313,18.3438 1642.7344,18.3438 C1642.4375,18.3438 1642.2344,18.4375 1642.0156,18.75 L1641.8438,18.6719 Z " fill="#000000"/><text fill="#000000" font-family="sans-serif" font-size="12" lengthAdjust="spacing" textLength="83" x="1653.5" y="27.1543">BasicAttribute</text><line style="stroke:#A80036;stroke-width:1.5;" x1="1625.5" x2="1738.5" y1="39" y2="39"/><polygon fill="none" points="1635.5,45,1639.5,49,1635.5,53,1631.5,49" style="stroke:#B38D22;stroke-width:1.0;"/><text fill="#000000" font-family="sans-serif" font-size="11" lengthAdjust="spacing" textLength="70" x="1644.5" y="53.2104">String name</text><polygon fill="none" points="1635.5,57.8047,1639.5,61.8047,1635.5,65.8047,1631.5,61.8047" style="stroke:#B38D22;stroke-width:1.0;"/><text fill="#000000" font-family="sans-serif" font-size="11" lengthAdjust="spacing" textLength="64" x="1644.5" y="66.0151">String desc</text><polygon fill="none" points="1635.5,70.6094,1639.5,74.6094,1635.5,78.6094,1631.5,74.6094" style="stroke:#B38D22;stroke-width:1.0;"/><text fill="#000000" font-family="sans-serif" font-size="11" lengthAdjust="spacing" textLength="55" x="1644.5" y="78.8198">int MaxHP</text><polygon fill="none" points="1635.5,83.4141,1639.5,87.4141,1635.5,91.4141,1631.5,87.4141" style="stroke:#B38D22;stroke-width:1.0;"/><text fill="#000000" font-family="sans-serif" font-size="11" lengthAdjust="spacing" textLength="56" x="1644.5" y="91.6245">int MaxMP</text><polygon fill="none" points="1635.5,96.2188,1639.5,100.2188,1635.5,104.2188,1631.5,100.2188" style="stroke:#B38D22;stroke-width:1.0;"/><text fill="#000000" font-family="sans-serif" font-size="11" lengthAdjust="spacing" textLength="32" x="1644.5" y="104.4292">int HP</text><polygon fill="none" points="1635.5,109.0234,1639.5,113.0234,1635.5,117.0234,1631.5,113.0234" style="stroke:#B38D22;stroke-width:1.0;"/><text fill="#000000" font-family="sans-serif" font-size="11" lengthAdjust="spacing" textLength="33" x="1644.5" y="117.2339">int MP</text><polygon fill="none" points="1635.5,121.8281,1639.5,125.8281,1635.5,129.8281,1631.5,125.8281" style="stroke:#B38D22;stroke-width:1.0;"/><text fill="#000000" font-family="sans-serif" font-size="11" lengthAdjust="spacing" textLength="32" x="1644.5" y="130.0386">int PA</text><polygon fill="none" points="1635.5,134.6328,1639.5,138.6328,1635.5,142.6328,1631.5,138.6328" style="stroke:#B38D22;stroke-width:1.0;"/><text fill="#000000" font-family="sans-serif" font-size="11" lengthAdjust="spacing" textLength="35" x="1644.5" y="142.8433">int MA</text><polygon fill="none" points="1635.5,147.4375,1639.5,151.4375,1635.5,155.4375,1631.5,151.4375" style="stroke:#B38D22;stroke-width:1.0;"/><text fill="#000000" font-family="sans-serif" font-size="11" lengthAdjust="spacing" textLength="41" x="1644.5" y="155.6479">int deff</text><polygon fill="none" points="1635.5,160.2422,1639.5,164.2422,1635.5,168.2422,1631.5,164.2422" style="stroke:#B38D22;stroke-width:1.0;"/><text fill="#000000" font-family="sans-serif" font-size="11" lengthAdjust="spacing" textLength="54" x="1644.5" y="168.4526">int speed</text><polygon fill="none" points="1635.5,173.0469,1639.5,177.0469,1635.5,181.0469,1631.5,177.0469" style="stroke:#B38D22;stroke-width:1.0;"/><text fill="#000000" font-family="sans-serif" font-size="11" lengthAdjust="spacing" textLength="84" x="1644.5" y="181.2573">boolean Guard</text><line style="stroke:#A80036;stroke-width:1.5;" x1="1625.5" x2="1738.5" y1="187.8516" y2="187.8516"/><!--MD5=[ab50d96312d8d6384574b269de1f44e9]
class Characters--><rect codeLine="73" fill="#FEFECE" filter="url(#fk7nwe3j8ozds)" height="112.0234" id="Characters" style="stroke:#A80036;stroke-width:1.5;" width="222" x="626" y="256"/><ellipse cx="700.25" cy="272" fill="#ADD1B2" rx="11" ry="11" style="stroke:#A80036;stroke-width:1.0;"/><path d="M702.5938,267.6719 C701.6563,267.2344 701.0625,267.0938 700.1875,267.0938 C697.5625,267.0938 695.5625,269.1719 695.5625,271.8906 L695.5625,273.0156 C695.5625,275.5938 697.6719,277.4844 700.5625,277.4844 C701.7813,277.4844 702.9375,277.1875 703.6875,276.6406 C704.2656,276.2344 704.5938,275.7813 704.5938,275.3906 C704.5938,274.9375 704.2031,274.5469 703.7344,274.5469 C703.5156,274.5469 703.3125,274.625 703.125,274.8125 C702.6719,275.2969 702.6719,275.2969 702.4844,275.3906 C702.0625,275.6563 701.375,275.7813 700.6094,275.7813 C698.5625,275.7813 697.2656,274.6875 697.2656,272.9844 L697.2656,271.8906 C697.2656,270.1094 698.5156,268.7969 700.25,268.7969 C700.8281,268.7969 701.4375,268.9531 701.9063,269.2031 C702.3906,269.4844 702.5625,269.7031 702.6563,270.1094 C702.7188,270.5156 702.75,270.6406 702.8906,270.7656 C703.0313,270.9063 703.2656,271.0156 703.4844,271.0156 C703.75,271.0156 704.0156,270.875 704.1875,270.6563 C704.2969,270.5 704.3281,270.3125 704.3281,269.8906 L704.3281,268.4688 C704.3281,268.0313 704.3125,267.9063 704.2188,267.75 C704.0625,267.4844 703.7813,267.3438 703.4844,267.3438 C703.1875,267.3438 702.9844,267.4375 702.7656,267.75 L702.5938,267.6719 Z " fill="#000000"/><text fill="#000000" font-family="sans-serif" font-size="12" lengthAdjust="spacing" textLength="65" x="720.75" y="276.1543">Characters</text><line style="stroke:#A80036;stroke-width:1.5;" x1="627" x2="847" y1="288" y2="288"/><polygon fill="none" points="637,294,641,298,637,302,633,298" style="stroke:#B38D22;stroke-width:1.0;"/><text fill="#000000" font-family="sans-serif" font-size="11" lengthAdjust="spacing" textLength="196" x="646" y="302.2104">enum type {PLAYER, ENEMY, NPC}</text><polygon fill="none" points="637,306.8047,641,310.8047,637,314.8047,633,310.8047" style="stroke:#B38D22;stroke-width:1.0;"/><text fill="#000000" font-family="sans-serif" font-size="11" lengthAdjust="spacing" textLength="83" x="646" y="315.0151">type charType</text><polygon fill="none" points="637,319.6094,641,323.6094,637,327.6094,633,323.6094" style="stroke:#B38D22;stroke-width:1.0;"/><text fill="#000000" font-family="sans-serif" font-size="11" lengthAdjust="spacing" textLength="42" x="646" y="327.8198">int gold</text><polygon fill="none" points="637,332.4141,641,336.4141,637,340.4141,633,336.4141" style="stroke:#B38D22;stroke-width:1.0;"/><text fill="#000000" font-family="sans-serif" font-size="11" lengthAdjust="spacing" textLength="90" x="646" y="340.6245">boolean isDead</text><line style="stroke:#A80036;stroke-width:1.5;" x1="627" x2="847" y1="347.2188" y2="347.2188"/><ellipse cx="637" cy="358.2188" fill="#84BE84" rx="3" ry="3" style="stroke:#038048;stroke-width:1.0;"/><text fill="#000000" font-family="sans-serif" font-size="11" lengthAdjust="spacing" textLength="98" x="646" y="361.4292">boolean isDead()</text><!--MD5=[2cb47ba637a0d19583e6199456f6ad0b]
class Player--><rect codeLine="82" fill="#FEFECE" filter="url(#fk7nwe3j8ozds)" height="124.8281" id="Player" style="stroke:#A80036;stroke-width:1.5;" width="198" x="772" y="434.5"/><ellipse cx="848.75" cy="450.5" fill="#ADD1B2" rx="11" ry="11" style="stroke:#A80036;stroke-width:1.0;"/><path d="M851.0938,446.1719 C850.1563,445.7344 849.5625,445.5938 848.6875,445.5938 C846.0625,445.5938 844.0625,447.6719 844.0625,450.3906 L844.0625,451.5156 C844.0625,454.0938 846.1719,455.9844 849.0625,455.9844 C850.2813,455.9844 851.4375,455.6875 852.1875,455.1406 C852.7656,454.7344 853.0938,454.2813 853.0938,453.8906 C853.0938,453.4375 852.7031,453.0469 852.2344,453.0469 C852.0156,453.0469 851.8125,453.125 851.625,453.3125 C851.1719,453.7969 851.1719,453.7969 850.9844,453.8906 C850.5625,454.1563 849.875,454.2813 849.1094,454.2813 C847.0625,454.2813 845.7656,453.1875 845.7656,451.4844 L845.7656,450.3906 C845.7656,448.6094 847.0156,447.2969 848.75,447.2969 C849.3281,447.2969 849.9375,447.4531 850.4063,447.7031 C850.8906,447.9844 851.0625,448.2031 851.1563,448.6094 C851.2188,449.0156 851.25,449.1406 851.3906,449.2656 C851.5313,449.4063 851.7656,449.5156 851.9844,449.5156 C852.25,449.5156 852.5156,449.375 852.6875,449.1563 C852.7969,449 852.8281,448.8125 852.8281,448.3906 L852.8281,446.9688 C852.8281,446.5313 852.8125,446.4063 852.7188,446.25 C852.5625,445.9844 852.2813,445.8438 851.9844,445.8438 C851.6875,445.8438 851.4844,445.9375 851.2656,446.25 L851.0938,446.1719 Z " fill="#000000"/><text fill="#000000" font-family="sans-serif" font-size="12" lengthAdjust="spacing" textLength="36" x="869.25" y="454.6543">Player</text><line style="stroke:#A80036;stroke-width:1.5;" x1="773" x2="969" y1="466.5" y2="466.5"/><rect fill="none" height="6" style="stroke:#C82930;stroke-width:1.0;" width="6" x="780" y="474.5"/><text fill="#000000" font-family="sans-serif" font-size="11" lengthAdjust="spacing" textLength="111" x="792" y="480.7104">Equipable weapons</text><rect fill="none" height="6" style="stroke:#C82930;stroke-width:1.0;" width="6" x="780" y="487.3047"/><text fill="#000000" font-family="sans-serif" font-size="11" lengthAdjust="spacing" textLength="172" x="792" y="493.5151">Equipable secondaryWeapons</text><rect fill="none" height="6" style="stroke:#C82930;stroke-width:1.0;" width="6" x="780" y="500.1094"/><text fill="#000000" font-family="sans-serif" font-size="11" lengthAdjust="spacing" textLength="93" x="792" y="506.3198">Equipable armor</text><rect fill="none" height="6" style="stroke:#C82930;stroke-width:1.0;" width="6" x="780" y="512.9141"/><text fill="#000000" font-family="sans-serif" font-size="11" lengthAdjust="spacing" textLength="127" x="792" y="519.1245">Equipable accessories</text><rect fill="none" height="6" style="stroke:#C82930;stroke-width:1.0;" width="6" x="780" y="525.7188"/><text fill="#000000" font-family="sans-serif" font-size="11" lengthAdjust="spacing" textLength="92" x="792" y="531.9292">Item[] inventory</text><rect fill="none" height="6" style="stroke:#C82930;stroke-width:1.0;" width="6" x="780" y="538.5234"/><text fill="#000000" font-family="sans-serif" font-size="11" lengthAdjust="spacing" textLength="40" x="792" y="544.7339">int Cap</text><line style="stroke:#A80036;stroke-width:1.5;" x1="773" x2="969" y1="551.3281" y2="551.3281"/><!--MD5=[80c532e980642ebbe770e7ed91e479d0]
class Enemy--><rect codeLine="91" fill="#FEFECE" filter="url(#fk7nwe3j8ozds)" height="60.8047" id="Enemy" style="stroke:#A80036;stroke-width:1.5;" width="115" x="447.5" y="466.5"/><ellipse cx="481.85" cy="482.5" fill="#ADD1B2" rx="11" ry="11" style="stroke:#A80036;stroke-width:1.0;"/><path d="M484.1938,478.1719 C483.2563,477.7344 482.6625,477.5938 481.7875,477.5938 C479.1625,477.5938 477.1625,479.6719 477.1625,482.3906 L477.1625,483.5156 C477.1625,486.0938 479.2719,487.9844 482.1625,487.9844 C483.3813,487.9844 484.5375,487.6875 485.2875,487.1406 C485.8656,486.7344 486.1938,486.2813 486.1938,485.8906 C486.1938,485.4375 485.8031,485.0469 485.3344,485.0469 C485.1156,485.0469 484.9125,485.125 484.725,485.3125 C484.2719,485.7969 484.2719,485.7969 484.0844,485.8906 C483.6625,486.1563 482.975,486.2813 482.2094,486.2813 C480.1625,486.2813 478.8656,485.1875 478.8656,483.4844 L478.8656,482.3906 C478.8656,480.6094 480.1156,479.2969 481.85,479.2969 C482.4281,479.2969 483.0375,479.4531 483.5063,479.7031 C483.9906,479.9844 484.1625,480.2031 484.2563,480.6094 C484.3188,481.0156 484.35,481.1406 484.4906,481.2656 C484.6313,481.4063 484.8656,481.5156 485.0844,481.5156 C485.35,481.5156 485.6156,481.375 485.7875,481.1563 C485.8969,481 485.9281,480.8125 485.9281,480.3906 L485.9281,478.9688 C485.9281,478.5313 485.9125,478.4063 485.8188,478.25 C485.6625,477.9844 485.3813,477.8438 485.0844,477.8438 C484.7875,477.8438 484.5844,477.9375 484.3656,478.25 L484.1938,478.1719 Z " fill="#000000"/><text fill="#000000" font-family="sans-serif" font-size="12" lengthAdjust="spacing" textLength="40" x="500.15" y="486.6543">Enemy</text><line style="stroke:#A80036;stroke-width:1.5;" x1="448.5" x2="561.5" y1="498.5" y2="498.5"/><rect fill="none" height="6" style="stroke:#C82930;stroke-width:1.0;" width="6" x="455.5" y="506.5"/><text fill="#000000" font-family="sans-serif" font-size="11" lengthAdjust="spacing" textLength="89" x="467.5" y="512.7104">Item[] dropitem</text><line style="stroke:#A80036;stroke-width:1.5;" x1="448.5" x2="561.5" y1="519.3047" y2="519.3047"/><!--MD5=[44a1b4afaef76c16e6c9ec4990ad0c8d]
class Item--><rect codeLine="95" fill="#FEFECE" filter="url(#fk7nwe3j8ozds)" height="99.2188" id="Item" style="stroke:#A80036;stroke-width:1.5;" width="293" x="2480.5" y="262.5"/><ellipse cx="2609.75" cy="278.5" fill="#ADD1B2" rx="11" ry="11" style="stroke:#A80036;stroke-width:1.0;"/><path d="M2612.0938,274.1719 C2611.1563,273.7344 2610.5625,273.5938 2609.6875,273.5938 C2607.0625,273.5938 2605.0625,275.6719 2605.0625,278.3906 L2605.0625,279.5156 C2605.0625,282.0938 2607.1719,283.9844 2610.0625,283.9844 C2611.2813,283.9844 2612.4375,283.6875 2613.1875,283.1406 C2613.7656,282.7344 2614.0938,282.2813 2614.0938,281.8906 C2614.0938,281.4375 2613.7031,281.0469 2613.2344,281.0469 C2613.0156,281.0469 2612.8125,281.125 2612.625,281.3125 C2612.1719,281.7969 2612.1719,281.7969 2611.9844,281.8906 C2611.5625,282.1563 2610.875,282.2813 2610.1094,282.2813 C2608.0625,282.2813 2606.7656,281.1875 2606.7656,279.4844 L2606.7656,278.3906 C2606.7656,276.6094 2608.0156,275.2969 2609.75,275.2969 C2610.3281,275.2969 2610.9375,275.4531 2611.4063,275.7031 C2611.8906,275.9844 2612.0625,276.2031 2612.1563,276.6094 C2612.2188,277.0156 2612.25,277.1406 2612.3906,277.2656 C2612.5313,277.4063 2612.7656,277.5156 2612.9844,277.5156 C2613.25,277.5156 2613.5156,277.375 2613.6875,277.1563 C2613.7969,277 2613.8281,276.8125 2613.8281,276.3906 L2613.8281,274.9688 C2613.8281,274.5313 2613.8125,274.4063 2613.7188,274.25 C2613.5625,273.9844 2613.2813,273.8438 2612.9844,273.8438 C2612.6875,273.8438 2612.4844,273.9375 2612.2656,274.25 L2612.0938,274.1719 Z " fill="#000000"/><text fill="#000000" font-family="sans-serif" font-size="12" lengthAdjust="spacing" textLength="26" x="2630.25" y="282.6543">Item</text><line style="stroke:#A80036;stroke-width:1.5;" x1="2481.5" x2="2772.5" y1="294.5" y2="294.5"/><polygon fill="none" points="2491.5,300.5,2495.5,304.5,2491.5,308.5,2487.5,304.5" style="stroke:#B38D22;stroke-width:1.0;"/><text fill="#000000" font-family="sans-serif" font-size="11" lengthAdjust="spacing" textLength="267" x="2500.5" y="308.7104">enum type {USABLE, EQUIPABLE, CRAFTABLE}</text><polygon fill="none" points="2491.5,313.3047,2495.5,317.3047,2491.5,321.3047,2487.5,317.3047" style="stroke:#B38D22;stroke-width:1.0;"/><text fill="#000000" font-family="sans-serif" font-size="11" lengthAdjust="spacing" textLength="69" x="2500.5" y="321.5151">String types</text><polygon fill="none" points="2491.5,326.1094,2495.5,330.1094,2491.5,334.1094,2487.5,330.1094" style="stroke:#B38D22;stroke-width:1.0;"/><text fill="#000000" font-family="sans-serif" font-size="11" lengthAdjust="spacing" textLength="85" x="2500.5" y="334.3198">type itemType</text><line style="stroke:#A80036;stroke-width:1.5;" x1="2481.5" x2="2772.5" y1="340.9141" y2="340.9141"/><ellipse cx="2491.5" cy="351.9141" fill="#84BE84" rx="3" ry="3" style="stroke:#038048;stroke-width:1.0;"/><text fill="#000000" font-family="sans-serif" font-size="11" lengthAdjust="spacing" textLength="64" x="2500.5" y="355.1245">usingItem()</text><!--MD5=[b6adba3b83175a0e989b23826689761d]
class Equipable--><rect codeLine="102" fill="#FEFECE" filter="url(#fk7nwe3j8ozds)" height="73.6094" id="Equipable" style="stroke:#A80036;stroke-width:1.5;" width="436" x="1705" y="460"/><ellipse cx="1889.25" cy="476" fill="#ADD1B2" rx="11" ry="11" style="stroke:#A80036;stroke-width:1.0;"/><path d="M1891.5938,471.6719 C1890.6563,471.2344 1890.0625,471.0938 1889.1875,471.0938 C1886.5625,471.0938 1884.5625,473.1719 1884.5625,475.8906 L1884.5625,477.0156 C1884.5625,479.5938 1886.6719,481.4844 1889.5625,481.4844 C1890.7813,481.4844 1891.9375,481.1875 1892.6875,480.6406 C1893.2656,480.2344 1893.5938,479.7813 1893.5938,479.3906 C1893.5938,478.9375 1893.2031,478.5469 1892.7344,478.5469 C1892.5156,478.5469 1892.3125,478.625 1892.125,478.8125 C1891.6719,479.2969 1891.6719,479.2969 1891.4844,479.3906 C1891.0625,479.6563 1890.375,479.7813 1889.6094,479.7813 C1887.5625,479.7813 1886.2656,478.6875 1886.2656,476.9844 L1886.2656,475.8906 C1886.2656,474.1094 1887.5156,472.7969 1889.25,472.7969 C1889.8281,472.7969 1890.4375,472.9531 1890.9063,473.2031 C1891.3906,473.4844 1891.5625,473.7031 1891.6563,474.1094 C1891.7188,474.5156 1891.75,474.6406 1891.8906,474.7656 C1892.0313,474.9063 1892.2656,475.0156 1892.4844,475.0156 C1892.75,475.0156 1893.0156,474.875 1893.1875,474.6563 C1893.2969,474.5 1893.3281,474.3125 1893.3281,473.8906 L1893.3281,472.4688 C1893.3281,472.0313 1893.3125,471.9063 1893.2188,471.75 C1893.0625,471.4844 1892.7813,471.3438 1892.4844,471.3438 C1892.1875,471.3438 1891.9844,471.4375 1891.7656,471.75 L1891.5938,471.6719 Z " fill="#000000"/><text fill="#000000" font-family="sans-serif" font-size="12" lengthAdjust="spacing" textLength="59" x="1909.75" y="480.1543">Equipable</text><line style="stroke:#A80036;stroke-width:1.5;" x1="1706" x2="2140" y1="492" y2="492"/><ellipse cx="1716" cy="503" rx="3" ry="3" style="stroke:#038048;stroke-width:1.0;fill:none;"/><text fill="#000000" font-family="sans-serif" font-size="11" lengthAdjust="spacing" textLength="410" x="1725" y="506.2104">enum typeE {WEAPONS,ARMOUR,ACCESSORIES,SECONDARY_WEAPONS</text><ellipse cx="1716" cy="515.8047" rx="3" ry="3" style="stroke:#038048;stroke-width:1.0;fill:none;"/><text fill="#000000" font-family="sans-serif" font-size="11" lengthAdjust="spacing" textLength="98" x="1725" y="519.0151">typeE equipType</text><line style="stroke:#A80036;stroke-width:1.5;" x1="1706" x2="2140" y1="525.6094" y2="525.6094"/><!--MD5=[83b53b9b83dc6617f41ec1c568b9916b]
class Usable--><rect codeLine="107" fill="#FEFECE" filter="url(#fk7nwe3j8ozds)" height="60.8047" id="Usable" style="stroke:#A80036;stroke-width:1.5;" width="81" x="2514.5" y="466.5"/><ellipse cx="2532.65" cy="482.5" fill="#ADD1B2" rx="11" ry="11" style="stroke:#A80036;stroke-width:1.0;"/><path d="M2534.9938,478.1719 C2534.0563,477.7344 2533.4625,477.5938 2532.5875,477.5938 C2529.9625,477.5938 2527.9625,479.6719 2527.9625,482.3906 L2527.9625,483.5156 C2527.9625,486.0938 2530.0719,487.9844 2532.9625,487.9844 C2534.1813,487.9844 2535.3375,487.6875 2536.0875,487.1406 C2536.6656,486.7344 2536.9938,486.2813 2536.9938,485.8906 C2536.9938,485.4375 2536.6031,485.0469 2536.1344,485.0469 C2535.9156,485.0469 2535.7125,485.125 2535.525,485.3125 C2535.0719,485.7969 2535.0719,485.7969 2534.8844,485.8906 C2534.4625,486.1563 2533.775,486.2813 2533.0094,486.2813 C2530.9625,486.2813 2529.6656,485.1875 2529.6656,483.4844 L2529.6656,482.3906 C2529.6656,480.6094 2530.9156,479.2969 2532.65,479.2969 C2533.2281,479.2969 2533.8375,479.4531 2534.3063,479.7031 C2534.7906,479.9844 2534.9625,480.2031 2535.0563,480.6094 C2535.1188,481.0156 2535.15,481.1406 2535.2906,481.2656 C2535.4313,481.4063 2535.6656,481.5156 2535.8844,481.5156 C2536.15,481.5156 2536.4156,481.375 2536.5875,481.1563 C2536.6969,481 2536.7281,480.8125 2536.7281,480.3906 L2536.7281,478.9688 C2536.7281,478.5313 2536.7125,478.4063 2536.6188,478.25 C2536.4625,477.9844 2536.1813,477.8438 2535.8844,477.8438 C2535.5875,477.8438 2535.3844,477.9375 2535.1656,478.25 L2534.9938,478.1719 Z " fill="#000000"/><text fill="#000000" font-family="sans-serif" font-size="12" lengthAdjust="spacing" textLength="42" x="2547.35" y="486.6543">Usable</text><line style="stroke:#A80036;stroke-width:1.5;" x1="2515.5" x2="2594.5" y1="498.5" y2="498.5"/><line style="stroke:#A80036;stroke-width:1.5;" x1="2515.5" x2="2594.5" y1="506.5" y2="506.5"/><ellipse cx="2525.5" cy="517.5" fill="#84BE84" rx="3" ry="3" style="stroke:#038048;stroke-width:1.0;"/><text fill="#000000" font-family="sans-serif" font-size="11" lengthAdjust="spacing" textLength="55" x="2534.5" y="520.7104">useItem()</text><!--MD5=[fa50c77ffb1c23bbe102922bba4028c7]
class Craftable--><rect codeLine="111" fill="#FEFECE" filter="url(#fk7nwe3j8ozds)" height="137.6328" id="Craftable" style="stroke:#A80036;stroke-width:1.5;" width="136" x="2631" y="428"/><ellipse cx="2668.5" cy="444" fill="#ADD1B2" rx="11" ry="11" style="stroke:#A80036;stroke-width:1.0;"/><path d="M2670.8438,439.6719 C2669.9063,439.2344 2669.3125,439.0938 2668.4375,439.0938 C2665.8125,439.0938 2663.8125,441.1719 2663.8125,443.8906 L2663.8125,445.0156 C2663.8125,447.5938 2665.9219,449.4844 2668.8125,449.4844 C2670.0313,449.4844 2671.1875,449.1875 2671.9375,448.6406 C2672.5156,448.2344 2672.8438,447.7813 2672.8438,447.3906 C2672.8438,446.9375 2672.4531,446.5469 2671.9844,446.5469 C2671.7656,446.5469 2671.5625,446.625 2671.375,446.8125 C2670.9219,447.2969 2670.9219,447.2969 2670.7344,447.3906 C2670.3125,447.6563 2669.625,447.7813 2668.8594,447.7813 C2666.8125,447.7813 2665.5156,446.6875 2665.5156,444.9844 L2665.5156,443.8906 C2665.5156,442.1094 2666.7656,440.7969 2668.5,440.7969 C2669.0781,440.7969 2669.6875,440.9531 2670.1563,441.2031 C2670.6406,441.4844 2670.8125,441.7031 2670.9063,442.1094 C2670.9688,442.5156 2671,442.6406 2671.1406,442.7656 C2671.2813,442.9063 2671.5156,443.0156 2671.7344,443.0156 C2672,443.0156 2672.2656,442.875 2672.4375,442.6563 C2672.5469,442.5 2672.5781,442.3125 2672.5781,441.8906 L2672.5781,440.4688 C2672.5781,440.0313 2672.5625,439.9063 2672.4688,439.75 C2672.3125,439.4844 2672.0313,439.3438 2671.7344,439.3438 C2671.4375,439.3438 2671.2344,439.4375 2671.0156,439.75 L2670.8438,439.6719 Z " fill="#000000"/><text fill="#000000" font-family="sans-serif" font-size="12" lengthAdjust="spacing" textLength="54" x="2687.5" y="448.1543">Craftable</text><line style="stroke:#A80036;stroke-width:1.5;" x1="2632" x2="2766" y1="460" y2="460"/><polygon fill="none" points="2642,466,2646,470,2642,474,2638,470" style="stroke:#B38D22;stroke-width:1.0;"/><text fill="#000000" font-family="sans-serif" font-size="11" lengthAdjust="spacing" textLength="72" x="2651" y="474.2104">Item product</text><polygon fill="none" points="2642,478.8047,2646,482.8047,2642,486.8047,2638,482.8047" style="stroke:#B38D22;stroke-width:1.0;"/><text fill="#000000" font-family="sans-serif" font-size="11" lengthAdjust="spacing" textLength="110" x="2651" y="487.0151">Item[] CraftMaterial</text><polygon fill="none" points="2642,491.6094,2646,495.6094,2642,499.6094,2638,495.6094" style="stroke:#B38D22;stroke-width:1.0;"/><text fill="#000000" font-family="sans-serif" font-size="11" lengthAdjust="spacing" textLength="41" x="2651" y="499.8198">int cost</text><line style="stroke:#A80036;stroke-width:1.5;" x1="2632" x2="2766" y1="506.4141" y2="506.4141"/><ellipse cx="2642" cy="517.4141" fill="#84BE84" rx="3" ry="3" style="stroke:#038048;stroke-width:1.0;"/><text fill="#000000" font-family="sans-serif" font-size="11" lengthAdjust="spacing" textLength="86" x="2651" y="520.6245">checkMaterial()</text><ellipse cx="2642" cy="530.2188" fill="#84BE84" rx="3" ry="3" style="stroke:#038048;stroke-width:1.0;"/><text fill="#000000" font-family="sans-serif" font-size="11" lengthAdjust="spacing" textLength="59" x="2651" y="533.4292">craftItem()</text><ellipse cx="2642" cy="543.0234" fill="#84BE84" rx="3" ry="3" style="stroke:#038048;stroke-width:1.0;"/><text fill="#000000" font-family="sans-serif" font-size="11" lengthAdjust="spacing" textLength="81" x="2651" y="546.2339">upgradeItem()</text><ellipse cx="2642" cy="555.8281" fill="#84BE84" rx="3" ry="3" style="stroke:#038048;stroke-width:1.0;"/><text fill="#000000" font-family="sans-serif" font-size="11" lengthAdjust="spacing" textLength="89" x="2651" y="559.0386">dismatingItem()</text><!--MD5=[c86ce95fe6226f2d2796c0513d8e83fe]
class Engine--><rect codeLine="121" fill="#FEFECE" filter="url(#fk7nwe3j8ozds)" height="60.8047" id="Engine" style="stroke:#A80036;stroke-width:1.5;" width="131" x="175.5" y="281.5"/><ellipse cx="217.05" cy="297.5" fill="#ADD1B2" rx="11" ry="11" style="stroke:#A80036;stroke-width:1.0;"/><path d="M219.3938,293.1719 C218.4563,292.7344 217.8625,292.5938 216.9875,292.5938 C214.3625,292.5938 212.3625,294.6719 212.3625,297.3906 L212.3625,298.5156 C212.3625,301.0938 214.4719,302.9844 217.3625,302.9844 C218.5813,302.9844 219.7375,302.6875 220.4875,302.1406 C221.0656,301.7344 221.3938,301.2813 221.3938,300.8906 C221.3938,300.4375 221.0031,300.0469 220.5344,300.0469 C220.3156,300.0469 220.1125,300.125 219.925,300.3125 C219.4719,300.7969 219.4719,300.7969 219.2844,300.8906 C218.8625,301.1563 218.175,301.2813 217.4094,301.2813 C215.3625,301.2813 214.0656,300.1875 214.0656,298.4844 L214.0656,297.3906 C214.0656,295.6094 215.3156,294.2969 217.05,294.2969 C217.6281,294.2969 218.2375,294.4531 218.7063,294.7031 C219.1906,294.9844 219.3625,295.2031 219.4563,295.6094 C219.5188,296.0156 219.55,296.1406 219.6906,296.2656 C219.8313,296.4063 220.0656,296.5156 220.2844,296.5156 C220.55,296.5156 220.8156,296.375 220.9875,296.1563 C221.0969,296 221.1281,295.8125 221.1281,295.3906 L221.1281,293.9688 C221.1281,293.5313 221.1125,293.4063 221.0188,293.25 C220.8625,292.9844 220.5813,292.8438 220.2844,292.8438 C219.9875,292.8438 219.7844,292.9375 219.5656,293.25 L219.3938,293.1719 Z " fill="#000000"/><text fill="#000000" font-family="sans-serif" font-size="12" lengthAdjust="spacing" textLength="40" x="236.95" y="301.6543">Engine</text><line style="stroke:#A80036;stroke-width:1.5;" x1="176.5" x2="305.5" y1="313.5" y2="313.5"/><line style="stroke:#A80036;stroke-width:1.5;" x1="176.5" x2="305.5" y1="321.5" y2="321.5"/><ellipse cx="186.5" cy="332.5" fill="#84BE84" rx="3" ry="3" style="stroke:#038048;stroke-width:1.0;"/><text fill="#000000" font-family="sans-serif" font-size="11" lengthAdjust="spacing" textLength="105" x="195.5" y="335.7104">main(String[] args)</text><!--MD5=[23218a2dcd0563892e1a50eba6f3138f]
reverse link BattleCommand to Battles--><path d="M73,171.208 C73,198.619 73,229.753 73,255.671 " fill="none" id="BattleCommand-backto-Battles" style="stroke:#A80036;stroke-width:1.0;stroke-dasharray:7.0,7.0;"/><polygon fill="none" points="66.0001,171.121,73,151.121,80.0001,171.121,66.0001,171.121" style="stroke:#A80036;stroke-width:1.0;"/><!--MD5=[7b7cb48b1929a6af6bf759070824e18d]
reverse link BasicAttribute to Characters--><path d="M1604.35,111.303 C1457.55,129.208 1130.25,175.175 865,256 C859.447,257.692 853.811,259.55 848.155,261.528 " fill="none" id="BasicAttribute-backto-Characters" style="stroke:#A80036;stroke-width:1.0;"/><polygon fill="none" points="1603.56,104.347,1624.25,108.913,1605.23,118.247,1603.56,104.347" style="stroke:#A80036;stroke-width:1.0;"/><!--MD5=[e41f909c0f5b6cf19c1aea4f1750596b]
reverse link Characters to Player--><path d="M789.542,384.755 C801.555,401.161 814.22,418.457 825.889,434.393 " fill="none" id="Characters-backto-Player" style="stroke:#A80036;stroke-width:1.0;"/><polygon fill="none" points="783.736,388.675,777.568,368.403,795.032,380.404,783.736,388.675" style="stroke:#A80036;stroke-width:1.0;"/><!--MD5=[9085ef05cebba2759843b0b4af4ece08]
reverse link Characters to Enemy--><path d="M651.339,380.569 C613.849,410.141 571.811,443.3 542.443,466.4649 " fill="none" id="Characters-backto-Enemy" style="stroke:#A80036;stroke-width:1.0;"/><polygon fill="none" points="647.04,375.045,667.078,368.154,655.71,386.037,647.04,375.045" style="stroke:#A80036;stroke-width:1.0;"/><!--MD5=[248bc8d17397274fd487d2a7f45b7a7b]
reverse link BasicAttribute to Item--><path d="M1759.93,114.38 C1901.3,136.692 2208.94,188.734 2463,256 C2470.55,257.998 2478.25,260.158 2486.01,262.426 " fill="none" id="BasicAttribute-backto-Item" style="stroke:#A80036;stroke-width:1.0;"/><polygon fill="none" points="1758.58,121.254,1739.9,111.244,1760.74,107.423,1758.58,121.254" style="stroke:#A80036;stroke-width:1.0;"/><!--MD5=[b99f58be70c058d0ac3e2f728b485991]
reverse link Item to Equipable--><path d="M2465.33,367.333 C2464.55,367.557 2463.77,367.779 2463,368 C2340.01,403.12 2199.37,436.236 2092.46,459.982 " fill="none" id="Item-backto-Equipable" style="stroke:#A80036;stroke-width:1.0;"/><polygon fill="none" points="2463.41,360.6,2484.57,361.629,2467.39,374.023,2463.41,360.6" style="stroke:#A80036;stroke-width:1.0;"/><!--MD5=[fc32fd025f44d31b94a4a387ce6b2731]
reverse link Item to Usable--><path d="M2600.5,380.351 C2588.85,409.959 2575.77,443.201 2566.64,466.4207 " fill="none" id="Item-backto-Usable" style="stroke:#A80036;stroke-width:1.0;"/><polygon fill="none" points="2594.06,377.609,2607.89,361.56,2607.09,382.734,2594.06,377.609" style="stroke:#A80036;stroke-width:1.0;"/><!--MD5=[f6dc2bee018e56d5c840203745050faf]
reverse link Item to Craftable--><path d="M2653.45,380.23 C2659.57,395.779 2666.08,412.337 2672.22,427.923 " fill="none" id="Item-backto-Craftable" style="stroke:#A80036;stroke-width:1.0;"/><polygon fill="none" points="2646.91,382.734,2646.11,361.56,2659.94,377.609,2646.91,382.734" style="stroke:#A80036;stroke-width:1.0;"/><!--MD5=[2dcf56fe6dee098efedd6099ab24ee98]
reverse link PlayerCommands to Engine--><path d="M241,158.825 C241,198.384 241,249.711 241,281.493 " fill="none" id="PlayerCommands-backto-Engine" style="stroke:#A80036;stroke-width:1.0;stroke-dasharray:7.0,7.0;"/><polygon fill="none" points="234,158.818,241,138.818,248,158.818,234,158.818" style="stroke:#A80036;stroke-width:1.0;"/><!--MD5=[b47601e36cd923f266a2a8fdc0498139]
link DataEnemy to Enemy--><path codeLine="125" d="M475.045,355.444 C482.291,389.443 492.271,436.27 498.68,466.3436 " fill="none" id="DataEnemy-Enemy" style="stroke:#A80036;stroke-width:1.0;"/><text fill="#000000" font-family="sans-serif" font-size="13" lengthAdjust="spacing" textLength="7" x="468.9287" y="375.6077">*</text><text fill="#000000" font-family="sans-serif" font-size="13" lengthAdjust="spacing" textLength="8" x="488.5515" y="455.5751">1</text><!--MD5=[6c04f4ec38fb276be54c5437077b5cc3]
link DataPlayer to Player--><path codeLine="126" d="M973.921,355.444 C956.757,378.884 935.128,408.422 916.133,434.363 " fill="none" id="DataPlayer-Player" style="stroke:#A80036;stroke-width:1.0;"/><text fill="#000000" font-family="sans-serif" font-size="13" lengthAdjust="spacing" textLength="7" x="961.41" y="375.6077">*</text><text fill="#000000" font-family="sans-serif" font-size="13" lengthAdjust="spacing" textLength="8" x="912.889" y="423.3379">1</text><!--MD5=[e28653f4c7998e76d3fb76891889d35c]
link DataWeapon to Equipable--><path codeLine="127" d="M1418.16,355.026 C1431.55,359.537 1445.04,363.952 1458,368 C1566.1,401.768 1689.76,435.583 1782.38,459.97 " fill="none" id="DataWeapon-Equipable" style="stroke:#A80036;stroke-width:1.0;"/><text fill="#000000" font-family="sans-serif" font-size="13" lengthAdjust="spacing" textLength="7" x="1429.9849" y="375.438">*</text><text fill="#000000" font-family="sans-serif" font-size="13" lengthAdjust="spacing" textLength="8" x="1747.7157" y="448.8749">1</text><!--MD5=[1bf81269aed0c9628654cdede1c64f62]
link DataArmor to Equipable--><path codeLine="128" d="M1679.89,355.214 C1734.57,386.88 1808.64,429.773 1860.6,459.864 " fill="none" id="DataArmor-Equipable" style="stroke:#A80036;stroke-width:1.0;"/><text fill="#000000" font-family="sans-serif" font-size="13" lengthAdjust="spacing" textLength="7" x="1683.949" y="375.341">*</text><text fill="#000000" font-family="sans-serif" font-size="13" lengthAdjust="spacing" textLength="8" x="1840.7725" y="449.0267">1</text><!--MD5=[6b4ef1a2b317ab1224f88fdf3cecf3d3]
link DataAccessories to Equipable--><path codeLine="129" d="M1923,355.444 C1923,387.12 1923,429.932 1923,459.954 " fill="none" id="DataAccessories-Equipable" style="stroke:#A80036;stroke-width:1.0;"/><text fill="#000000" font-family="sans-serif" font-size="13" lengthAdjust="spacing" textLength="7" x="1915.4422" y="375.6077">*</text><text fill="#000000" font-family="sans-serif" font-size="13" lengthAdjust="spacing" textLength="8" x="1914.2625" y="448.856">1</text><!--MD5=[e6ce2dc97ef7f17e79d6c6798e3861af]
link DataSecondaryWeapon to Equipable--><path codeLine="130" d="M2194.57,355.214 C2133.49,386.88 2050.75,429.773 1992.71,459.864 " fill="none" id="DataSecondaryWeapon-Equipable" style="stroke:#A80036;stroke-width:1.0;"/><text fill="#000000" font-family="sans-serif" font-size="13" lengthAdjust="spacing" textLength="7" x="2174.0343" y="375.341">*</text><text fill="#000000" font-family="sans-serif" font-size="13" lengthAdjust="spacing" textLength="8" x="1996.4146" y="449.0267">1</text><!--MD5=[2fde45e7f5ef23a2adb5aa959ab09b61]
@startuml
interface BattleCommand{
    attack ()
    guard ()
    skip()
    showstatus()
}

interface PlayerCommands{
    equip()
    unequip()
}

class Battles implements BattleCommand {
    - int turn
    - boolean EndGame

    + Battle()
    + battleAi ()
    + NewGame ()
}

class DataEnemy{
    - HashMap<Integer, Enemy> DataPlayer
    + DataEnemy()
    + getEnemy()
}

class DataPlayer {
    - HashMap<Integer, Player> DataPlayer
    + DataPlayer()
    + getPlayer()
}

class DataWeapon{
    - HashMap<Integer, Equipable> DataWeapon
    + DataWeapon()
    + getWeapon()
}

class DataArmor{
    - HashMap<Integer, Equipable> DataArmor
    + DataArmor()
    + getArmor()
}

class DataAccessories{
    - HashMap<Integer, Equipable> DataAccessories
    + DataAccessories()
    + getAccessories()
}

class DataSecondaryWeapon{
    - HashMap<Integer, Equipable> DataSecondaryWeapon
    + DataSecondaryWeapon()
    + getSecondaryWeapon()
}

class BasicAttribute {
    # String name
    # String desc
    # int MaxHP
    # int MaxMP
    # int HP
    # int MP
    # int PA
    # int MA
    # int deff
    # int speed
    # boolean Guard
    
}

class Characters extends BasicAttribute {
    # enum type {PLAYER, ENEMY, NPC}
    # type charType
    # int gold
    # boolean isDead

    + boolean isDead()
}

class Player extends Characters {
    - Equipable weapons
    - Equipable secondaryWeapons
    - Equipable armor
    - Equipable accessories
    - Item[] inventory
    - int Cap
}

class Enemy extends Characters {
    - Item[] dropitem
}

class Item extends BasicAttribute{
    # enum type {USABLE, EQUIPABLE, CRAFTABLE}
    # String types
    # type itemType
    + usingItem()
}

class Equipable extends Item{
    + enum typeE {WEAPONS,ARMOUR,ACCESSORIES,SECONDARY_WEAPONS
    + typeE equipType
}

class Usable extends Item {
    + useItem()
}

class Craftable extends Item {
    # Item product
    # Item[] CraftMaterial
    # int cost
    + checkMaterial()
    + craftItem()
    + upgradeItem()
    + dismatingItem()
}

class Engine implements PlayerCommands{
    + main(String[] args)
}

DataEnemy "*" - - "1" Enemy
DataPlayer "*" - - "1" Player
DataWeapon "*" - - "1" Equipable
DataArmor "*" - - "1" Equipable
DataAccessories "*" - - "1" Equipable
DataSecondaryWeapon "*" - - "1" Equipable
@enduml

PlantUML version 1.2021.5beta3(Unknown compile time)
(GPL source distribution)
Java Runtime: Java(TM) SE Runtime Environment
JVM: Java HotSpot(TM) 64-Bit Server VM
Default Encoding: UTF-8
Language: en
Country: US
--></g></svg>